Coordinates
version=1
nRows=10
nColumns=40
inDegrees=yes

Units are S.I. units (second, meters, Newtons, ...)
If the header above contains a line with 'inDegrees', this indicates whether rotational values are in degrees (yes) or radians (no).

endheader
time	pelvis_tilt	pelvis_list	pelvis_rotation	pelvis_tx	pelvis_ty	pelvis_tz	hip_flexion_r	hip_adduction_r	hip_rotation_r	knee_angle_r	knee_angle_r_beta	ankle_angle_r	subtalar_angle_r	mtp_angle_r	hip_flexion_l	hip_adduction_l	hip_rotation_l	knee_angle_l	knee_angle_l_beta	ankle_angle_l	subtalar_angle_l	mtp_angle_l	lumbar_extension	lumbar_bending	lumbar_rotation	arm_flex_r	arm_add_r	arm_rot_r	elbow_flex_r	pro_sup_r	wrist_flex_r	wrist_dev_r	arm_flex_l	arm_add_l	arm_rot_l	elbow_flex_l	pro_sup_l	wrist_flex_l	wrist_dev_l
      0.85000000	     11.73007539	    -29.21164261	    -89.96720792	      0.39952083	      0.93010831	      0.16474374	      7.40969889	    -44.09321367	     -3.31579804	     59.71926858	      1.04229786	     17.39702580	      0.00000000	      0.00000000	     57.70876759	     29.92278487	     -3.08407811	     79.74160751	      1.39175360	     -3.38237220	      0.00000000	      0.00000000	    -44.36558233	      7.13943437	    -21.51475954	     31.81879954	    -53.64950002	     49.80974463	    138.64221719	     48.63609390	      0.00000000	      0.00000000	     39.56119061	    -13.42697917	     59.64772053	    111.63101152	     52.87155214	      0.00000000	      0.00000000
      0.85277778	     12.26788547	    -29.24193862	    -89.96460070	      0.40344816	      0.92792009	      0.16525997	      8.12772548	    -45.00923646	     -2.62320988	     60.02355259	      1.04760862	     16.93020900	      0.00000000	      0.00000000	     56.62495255	     29.90463880	     -2.75404722	     77.52719631	      1.35310484	     -3.66583661	      0.00000000	      0.00000000	    -44.30910344	      6.98100476	    -21.28076785	     30.07413523	    -54.11951931	     48.67206833	    138.06878398	     48.22229364	      0.00000000	      0.00000000	     39.63087433	    -13.38967154	     59.94486267	    110.26666190	     52.77309364	      0.00000000	      0.00000000
      0.85555556	     12.99574620	    -29.20118039	    -89.96163774	      0.40718127	      0.92544377	      0.16574112	      9.13473082	    -46.10221884	     -1.71404456	     60.38141109	      1.05385443	     16.72790690	      0.00000000	      0.00000000	     55.70599986	     29.87820496	     -2.64146396	     75.26283580	      1.31358429	     -3.86532008	      0.00000000	      0.00000000	    -44.16553341	      6.61829375	    -21.22926086	     28.94585016	    -54.42776548	     48.24134113	    137.23563269	     47.65752547	      0.00000000	      0.00000000	     39.67343582	    -13.50584893	     60.16482123	    109.04112609	     52.55086644	      0.00000000	      0.00000000
      0.85833333	     13.43693926	    -29.14408978	    -89.95948633	      0.40966985	      0.92371939	      0.16604626	      9.84904759	    -46.78784696	     -1.10608087	     60.62929824	      1.05818088	     16.61259630	      0.00000000	      0.00000000	     55.13381783	     29.85059934	     -2.50054916	     73.78176233	      1.28773468	     -4.03599211	      0.00000000	      0.00000000	    -44.04128085	      6.41444313	    -21.22201040	     28.37690688	    -54.62992803	     48.29411281	    136.64839053	     47.39803074	      0.00000000	      0.00000000	     39.72370892	    -13.61150420	     60.31644411	    108.26902551	     52.29597683	      0.00000000	      0.00000000
      0.86111111	     14.17129326	    -28.94474070	    -89.95624295	      0.41333223	      0.92082977	      0.16646571	     11.18158568	    -47.83449061	     -0.00266804	     61.02428261	      1.06507466	     16.53567284	      0.00000000	      0.00000000	     54.45089112	     29.78471940	     -2.38348596	     71.55764920	      1.24891658	     -4.26734245	      0.00000000	      0.00000000	    -43.73726341	      6.01614211	    -21.21717828	     27.47536544	    -54.83904508	     48.29898604	    135.45706950	     48.42073273	      0.00000000	      0.00000000	     39.79584598	    -13.74623860	     60.49316511	    107.09298636	     51.57698030	      0.00000000	      0.00000000
      0.86388889	     14.19291585	    -28.70534200	    -89.95170287	      0.41760191	      0.91811061	      0.16686197	     11.92820992	    -48.25073756	      0.29063841	     61.31716821	      1.07018647	     16.56725709	      0.00000000	      0.00000000	     53.53328960	     29.59023835	     -1.44463484	     69.48214189	      1.21269215	     -4.28413729	      0.00000000	      0.00000000	    -43.43162427	      6.39257651	    -21.15144370	     27.05273535	    -55.10864535	     48.37600382	    134.35573108	     48.32288306	      0.00000000	      0.00000000	     39.81682282	    -13.92178597	     60.50369280	    105.93170372	     51.35371021	      0.00000000	      0.00000000
      0.86666667	     14.54190757	    -28.36995387	    -89.94964851	      0.42106888	      0.91501965	      0.16683090	     13.23359382	    -48.76364679	      1.33614767	     61.73448354	      1.07747000	     16.18084271	      0.00000000	      0.00000000	     52.91010811	     29.20275277	     -1.10222032	     67.38293761	      1.17605412	     -4.94892937	      0.00000000	      0.00000000	    -43.06594355	      6.33930856	    -20.87420285	     25.47400361	    -55.37483599	     47.28800132	    133.38119705	     48.18385349	      0.00000000	      0.00000000	     40.26012382	    -14.02775234	     61.06479052	    104.50222573	     50.61450567	      0.00000000	      0.00000000
      0.86944444	     14.18898399	    -28.02776917	    -89.94846769	      0.42382351	      0.91275503	      0.16680091	     13.72319178	    -48.65476903	      1.29250558	     61.98034631	      1.08176111	     16.15856436	      0.00000000	      0.00000000	     52.43184654	     28.73434088	     -0.33616790	     66.15617608	      1.15464309	     -5.01168485	      0.00000000	      0.00000000	    -42.72128244	      6.91947665	    -20.72039796	     25.18296602	    -55.56956187	     47.24049875	    132.59452955	     48.12311363	      0.00000000	      0.00000000	     40.45487419	    -14.16407104	     61.21241144	    103.67873410	     50.34993589	      0.00000000	      0.00000000
      0.87222222	     13.96569826	    -27.64736235	    -89.94750642	      0.42732225	      0.90965891	      0.16648773	     14.55771963	    -48.67381341	      1.60897240	     62.34241840	      1.08808046	     16.19814112	      0.00000000	      0.00000000	     51.67469232	     27.98872047	      0.40172190	     64.22359118	      1.12091312	     -5.15547695	      0.00000000	      0.00000000	    -42.35623206	      7.44444331	    -20.55926077	     24.66991273	    -55.70928822	     47.14373544	    131.38978743	     47.92468612	      0.00000000	      0.00000000	     40.74973130	    -14.45073843	     61.41491761	    102.42450774	     50.00022131	      0.00000000	      0.00000000
      0.87500000	     13.59441050	    -26.78446775	    -89.94761495	      0.43111694	      0.90519408	      0.16633424	     16.06011547	    -48.60409373	      1.96781484	     62.97010538	      1.09903567	     15.95718528	      0.00000000	      0.00000000	     51.59049602	     27.12695456	      1.17133085	     62.45097444	      1.08997512	     -5.99174460	      0.00000000	      0.00000000	    -41.49693161	      8.09691081	    -20.11159006	     23.27883118	    -55.99457869	     46.22086628	    130.36431082	     47.58187359	      0.00000000	      0.00000000	     41.34406139	    -14.55207987	     62.07779967	    100.98760880	     48.83992271	      0.00000000	      0.00000000
